<svg width="30" height="30" viewBox="0 0 30 30" fill="none" xmlns="http://www.w3.org/2000/svg">
<path d="M15 2.8125C12.5895 2.8125 10.2332 3.52728 8.22899 4.86646C6.22477 6.20564 4.66267 8.10907 3.74022 10.336C2.81778 12.563 2.57643 15.0135 3.04668 17.3777C3.51694 19.7418 4.67769 21.9134 6.38214 23.6179C8.08659 25.3223 10.2582 26.4831 12.6223 26.9533C14.9865 27.4236 17.437 27.1822 19.664 26.2598C21.8909 25.3373 23.7944 23.7752 25.1335 21.771C26.4727 19.7668 27.1875 17.4105 27.1875 15C27.1841 11.7687 25.899 8.67076 23.6141 6.3859C21.3292 4.10104 18.2313 2.81591 15 2.8125ZM18.4594 19.9676C18.4907 20.0389 18.5038 20.1169 18.4975 20.1946C18.4911 20.2723 18.4654 20.3471 18.4229 20.4124C18.3803 20.4776 18.3221 20.5313 18.2536 20.5684C18.1851 20.6055 18.1084 20.625 18.0305 20.625H11.9695C11.8916 20.625 11.8149 20.6055 11.7464 20.5684C11.6779 20.5313 11.6197 20.4776 11.5771 20.4124C11.5346 20.3471 11.5089 20.2723 11.5026 20.1946C11.4962 20.1169 11.5093 20.0389 11.5406 19.9676L13.125 16.3734C12.4101 15.9607 11.8514 15.3236 11.5355 14.5609C11.2196 13.7982 11.1641 12.9526 11.3778 12.1553C11.5914 11.3579 12.0622 10.6533 12.7171 10.1508C13.3721 9.64823 14.1745 9.37584 15 9.37584C15.8255 9.37584 16.6279 9.64823 17.2829 10.1508C17.9378 10.6533 18.4086 11.3579 18.6222 12.1553C18.8359 12.9526 18.7805 13.7982 18.4646 14.5609C18.1486 15.3236 17.5899 15.9607 16.875 16.3734L18.4594 19.9676Z" fill="#4A4DB5"/>
</svg>
